<svg width="24" height="24" xmlns="http://www.w3.org/2000/svg" fill-rule="evenodd" clip-rule="evenodd"><path d="M16.063 19.528l-6.416-5.37 1.08 1.961c.134.241.214.515.232.791l.38 5.793c.041.674-.466 1.297-1.253 1.297-.59 0-1.093-.4-1.225-.974l-1.157-4.961c-.385-.437-1.475-1.593-2.135-2.291-.719 1.711-2.536 6.043-3.114 7.459-.192.473-.645.767-1.179.767-.703 0-1.276-.569-1.276-1.27 0-.092 0-.112.761-3.863.518-2.555 1.167-5.755 1.473-7.382.084-.445.287-.86.587-1.198l.938-1.057-3.37-2.82c-.507-.425.137-1.192.642-.767l.949.795c.325-.626.855-1.651 1.165-2.278.199-.397.589-.658 1.045-.699 1.178.012 2.314.018 5.252.039.57.005 1.121.049 1.596.528.294.294 2.051 2.176 2.416 2.542.333.334.522.794.521 1.263l-.005 8.639 2.766 2.316 2.72-2.996c.235-.259.546-.381.854-.381.465 0 .919.277 1.088.779.937 2.817 2.602 7.81 2.602 7.81h-12l4.063-4.472zm-11.537-9.656l-.957 1.079c-.179.202-.302.451-.352.72-.306 1.63-.956 4.835-1.476 7.394-.371 1.829-.721 3.556-.744 3.72.01.211.431.32.533.071.726-1.782 3.414-8.175 3.414-8.175.186-.439.621-.362.823-.151 0 0 2.101 2.208 2.629 2.776.139.15.235.334.282.531l1.157 4.963c.064.287.524.261.506-.033l-.38-5.79c-.008-.131-.047-.261-.109-.375l-1.943-3.527c-.07-.125-.081-.271-.037-.402l-3.346-2.801zm18.087 13.128c-.559-1.676-1.793-5.397-2.164-6.494-.036-.106-.171-.129-.253-.042-1.031 1.082-4.259 4.691-5.936 6.536h8.353zm-9.642-7.364l.004-7.805c.001-.206-.083-.408-.229-.555-.709-.711-1.804-1.928-2.417-2.543-.177-.179-.37-.229-.895-.233-2.865-.021-4.154-.027-5.206-.041-.063.008-.143.058-.187.146-.338.684-.938 1.842-1.252 2.444l.07.049 1.694-1.887c.103-.114.259-.169.405-.165l2.617.175c.414.028.616.521.34.831l-2.725 3.072 3.308 2.768 2.434-2.826c.273-.316.796-.177.871.239l1.165 6.329.003.002zm-3.706-3.102l.94.787 1.527 1.278-.729-4.083-1.738 2.018zm-5.677-4.751l.835.699 2.068-2.331-1.356-.091-1.547 1.723zm10.845-2.096c-1.568 0-2.845-1.275-2.845-2.843s1.277-2.844 2.845-2.844c1.568 0 2.844 1.276 2.844 2.844 0 1.568-1.276 2.843-2.844 2.843zm0-4.687c-1.018 0-1.845.827-1.845 1.844 0 1.016.827 1.843 1.845 1.843 1.017 0 1.844-.827 1.844-1.843 0-1.017-.827-1.844-1.844-1.844z"/></svg>